# xmcd
#
# Track frame offsets: 
#        150
#        13468
#        27540
#        42849
#        54403
#        68213
#        87406
#        100382
#        111463
#
# Disc length: 1657 seconds
#
# Revision: 0
# Processed by: cddbd v1.5.2PL0 Copyright (c) Steve Scherf et al.
# Submitted via: ExactAudioCopyFreeDBPlugin 1.0
#
DISCID=7f067709
DTITLE=Blue Moon Marquee - Lonesome Ghost
DYEAR=2014
DGENRE=Blues
TTITLE0=What I Wouldn't Do
TTITLE1=Pipeliner Blues
TTITLE2=Troubles Callin'
TTITLE3=Scotch Whiskey
TTITLE4=Bishop Street
TTITLE5=Gypsy's Life
TTITLE6=In The Henhouse
TTITLE7=Sugar Dime
TTITLE8=Lonesome Ghosts
EXTD=
EXTT0=
EXTT1=
EXTT2=
EXTT3=
EXTT4=
EXTT5=
EXTT6=
EXTT7=
EXTT8=
PLAYORDER=
